<svg width="50" height="50" viewBox="0 0 50 50" fill="none" xmlns="http://www.w3.org/2000/svg">
<path d="M40.8573 26.9042C40.3862 26.4333 39.7475 26.1687 39.0815 26.1687C38.4155 26.1687 37.7767 26.4333 37.3057 26.9042L34.9372 29.2727C34.9321 29.2727 34.9305 29.2836 34.9263 29.2878L33.7541 30.454C33.3667 30.8439 32.9059 31.1535 32.3985 31.3646C31.891 31.5758 31.3467 31.6845 30.797 31.6845C30.2474 31.6845 29.7031 31.5758 29.1956 31.3646C28.688 31.1535 28.2274 30.8439 27.8399 30.454L19.5513 22.1654C19.1613 21.7778 18.8518 21.317 18.6406 20.8093C18.4294 20.3016 18.3207 19.7573 18.3207 19.2075C18.3207 18.6576 18.4294 18.1133 18.6406 17.6056C18.8518 17.0979 19.1613 16.6371 19.5513 16.2495L20.7184 15.0774L20.7293 15.0707L23.0978 12.703C23.3311 12.4697 23.5162 12.1928 23.6423 11.8881C23.7686 11.5833 23.8336 11.2566 23.8336 10.9268C23.8336 10.5969 23.7686 10.2702 23.6423 9.96545C23.5162 9.6607 23.3311 9.38382 23.0978 9.15057L15.9913 2.03992C15.5129 1.58304 14.8767 1.3281 14.2151 1.3281C13.5536 1.3281 12.9174 1.58304 12.4389 2.03992L10.0712 4.40762L10.0654 4.41683C7.24548 7.24217 5.59192 11.0251 5.43339 15.0137C5.27486 19.0022 6.62295 22.9045 9.20972 25.9447V28.8625C9.08916 28.9102 8.97278 28.9587 8.85892 29.0081L6.63689 26.7861C6.47693 26.6348 6.26513 26.5506 6.04497 26.5506C5.82481 26.5506 5.613 26.6348 5.45304 26.7861L1.90316 30.336C1.7462 30.493 1.65803 30.7059 1.65803 30.9279C1.65803 31.15 1.7462 31.3629 1.90316 31.5198L4.12519 33.7419C4.07495 33.8557 4.02723 33.9721 3.97951 34.0927H0.837358C0.615307 34.0927 0.402356 34.1809 0.24534 34.3379C0.0883333 34.4949 0.00012207 34.7079 0.00012207 34.9299V39.9533C0.00012207 40.1754 0.0883333 40.3884 0.24534 40.5453C0.402356 40.7023 0.615307 40.7906 0.837358 40.7906H3.97951C4.02723 40.9111 4.07495 41.0275 4.12519 41.1405L1.90316 43.3634C1.7462 43.5204 1.65803 43.7333 1.65803 43.9553C1.65803 44.1774 1.7462 44.3903 1.90316 44.5472L5.45304 48.0971C5.61005 48.2541 5.82297 48.3423 6.04497 48.3423C6.26697 48.3423 6.47989 48.2541 6.63689 48.0971L8.85892 45.8751C8.97278 45.9245 9.08916 45.9731 9.20972 46.0208V49.1629C9.20972 49.385 9.29797 49.598 9.45495 49.7549C9.61193 49.9119 9.82492 50.0002 10.047 50.0002H15.0704C15.2924 50.0002 15.5054 49.9119 15.6624 49.7549C15.8194 49.598 15.9076 49.385 15.9076 49.1629V46.0208C16.0282 45.9731 16.1446 45.9245 16.2584 45.8751L18.4804 48.0971C18.6404 48.2484 18.8522 48.3326 19.0724 48.3326C19.2926 48.3326 19.5043 48.2484 19.6643 48.0971L23.2142 44.5472C23.3712 44.3903 23.4593 44.1774 23.4593 43.9553C23.4593 43.7333 23.3712 43.5204 23.2142 43.3634L20.9921 41.1405C21.0424 41.0275 21.0901 40.9111 21.1378 40.7906H24.0548C27.0928 43.3816 30.9957 44.7326 34.9855 44.5741C38.9752 44.4157 42.7588 42.7596 45.5818 39.9357L45.5927 39.9291L47.9604 37.5605C48.1936 37.3273 48.3787 37.0504 48.5049 36.7456C48.6312 36.4409 48.6962 36.1142 48.6962 35.7843C48.6962 35.4544 48.6312 35.1278 48.5049 34.823C48.3787 34.5182 48.1936 34.2414 47.9604 34.0081L40.8573 26.9042ZM13.6245 3.22294C13.784 3.07073 13.9959 2.9858 14.2164 2.9858C14.4368 2.9858 14.6488 3.07073 14.8083 3.22294L21.9123 10.3277C22.069 10.4847 22.157 10.6974 22.157 10.9192C22.157 11.141 22.069 11.3538 21.9123 11.5107L20.1373 13.2848L11.8487 4.9962L13.6245 3.22294ZM23.4427 39.1161H20.5459C20.3687 39.1161 20.1959 39.1724 20.0528 39.2768C19.9095 39.3812 19.8031 39.5284 19.7489 39.6971C19.6189 40.1159 19.4493 40.5213 19.2423 40.9078C19.1554 41.0665 19.1223 41.2492 19.148 41.4284C19.1737 41.6075 19.2567 41.7736 19.3847 41.9016L21.4376 43.9553L19.0724 46.3214L17.0186 44.2676C16.8905 44.1394 16.7243 44.0563 16.545 44.0307C16.3657 44.005 16.1829 44.0382 16.024 44.1253C15.6378 44.3328 15.2323 44.5025 14.8133 44.6318C14.6447 44.6862 14.4977 44.7926 14.3935 44.9359C14.2892 45.0791 14.2331 45.2517 14.2331 45.4289V48.3257H10.8842V45.4289C10.8843 45.2517 10.8281 45.0791 10.7239 44.9359C10.6196 44.7926 10.4726 44.6862 10.304 44.6318C9.88504 44.5025 9.47956 44.3328 9.09335 44.1253C8.93444 44.0382 8.75167 44.005 8.57233 44.0307C8.393 44.0563 8.22681 44.1394 8.09871 44.2676L6.04497 46.3214L3.68396 43.9553L5.73687 41.9016C5.86482 41.7736 5.94785 41.6075 5.97351 41.4284C5.99917 41.2492 5.96608 41.0665 5.8792 40.9078C5.67364 40.5211 5.50543 40.1158 5.37685 39.6971C5.32218 39.527 5.21451 39.3788 5.0696 39.2743C4.92468 39.1698 4.75012 39.1143 4.57143 39.1161H1.67459V35.7672H4.57143C4.74869 35.7672 4.92137 35.7109 5.06461 35.6065C5.20784 35.5021 5.31424 35.3549 5.36848 35.1861C5.49706 34.7675 5.66526 34.3621 5.87082 33.9755C5.9577 33.8167 5.9908 33.634 5.96514 33.4549C5.93948 33.2757 5.85645 33.1097 5.72849 32.9817L3.68396 30.9279L6.04497 28.5619L8.09871 30.6156C8.22681 30.7438 8.393 30.827 8.57233 30.8526C8.75167 30.8783 8.93444 30.845 9.09335 30.758C9.47956 30.5504 9.88504 30.3808 10.304 30.2514C10.4726 30.197 10.6196 30.0906 10.7239 29.9474C10.8281 29.8041 10.8843 29.6315 10.8842 29.4544V26.5576H14.2331V29.4544C14.2331 29.6315 14.2892 29.8041 14.3935 29.9474C14.4977 30.0906 14.6447 30.197 14.8133 30.2514C15.2323 30.3808 15.6378 30.5504 16.024 30.758C16.1829 30.845 16.3657 30.8783 16.545 30.8526C16.7243 30.827 16.8905 30.7438 17.0186 30.6156L19.0724 28.5619L21.4376 30.9279L19.3847 32.9817C19.2567 33.1097 19.1737 33.2757 19.148 33.4549C19.1223 33.634 19.1554 33.8167 19.2423 33.9755C19.4493 34.3619 19.6189 34.7673 19.7489 35.1861C19.8031 35.3549 19.9095 35.5021 20.0528 35.6065C20.1959 35.7109 20.3687 35.7672 20.5459 35.7672H23.4427V39.1161ZM25.1172 39.4987V34.9299C25.1172 34.7079 25.029 34.4949 24.872 34.3379C24.715 34.1809 24.502 34.0927 24.28 34.0927H21.1378C21.0901 33.9721 21.0424 33.8557 20.9921 33.7419L23.2142 31.5198C23.3712 31.3629 23.4593 31.15 23.4593 30.9279C23.4593 30.7059 23.3712 30.493 23.2142 30.336L19.6643 26.7861C19.5073 26.6291 19.2944 26.541 19.0724 26.541C18.8503 26.541 18.6374 26.6291 18.4804 26.7861L16.2584 29.0081C16.1446 28.9587 16.0282 28.9102 15.9076 28.8625V25.7203C15.9076 25.4983 15.8194 25.2853 15.6624 25.1283C15.5054 24.9713 15.2924 24.8831 15.0704 24.8831H10.5024C8.2721 22.2723 7.06162 18.9429 7.09453 15.5093C7.12751 12.0758 8.40162 8.77013 10.6816 6.20266L18.951 14.472L18.3649 15.0631C17.8189 15.6064 17.3857 16.2522 17.09 16.9634C16.7944 17.6746 16.6422 18.4373 16.6422 19.2075C16.6422 19.9776 16.7944 20.7403 17.09 21.4515C17.3857 22.1627 17.8189 22.8085 18.3649 23.3518L26.6535 31.6404C27.1962 32.186 27.8414 32.6191 28.552 32.9149C29.2625 33.2105 30.0244 33.3629 30.7941 33.3633C31.5637 33.3637 32.3257 33.2121 33.0366 32.9171C33.7474 32.6222 34.393 32.1897 34.9363 31.6446L35.5316 31.0535L43.8018 39.3229C41.2335 41.6032 37.9268 42.8772 34.4924 42.9095C31.0581 42.9418 27.728 41.7303 25.1172 39.4987ZM46.7765 36.3767L45.0024 38.1508L36.7138 29.8621L38.4887 28.0889C38.6457 27.9319 38.8586 27.8437 39.0806 27.8437C39.3027 27.8437 39.5156 27.9319 39.6726 28.0889L46.7765 35.1928C46.9335 35.3498 47.0217 35.5627 47.0217 35.7847C47.0217 36.0068 46.9335 36.2197 46.7765 36.3767Z" fill="black"/>
<path d="M12.5586 33.2556C11.7307 33.2556 10.9213 33.5011 10.233 33.961C9.54449 34.4211 9.00791 35.0748 8.6911 35.8398C8.37428 36.6047 8.29131 37.4464 8.4529 38.2585C8.6144 39.0705 9.0131 39.8164 9.59858 40.4018C10.184 40.9873 10.9299 41.386 11.742 41.5475C12.554 41.7091 13.3957 41.6261 14.1606 41.3093C14.9256 40.9925 15.5793 40.4559 16.0394 39.7675C16.4993 39.0791 16.7448 38.2697 16.7448 37.4418C16.7435 36.3319 16.302 35.268 15.5173 34.4831C14.7324 33.6984 13.6685 33.2569 12.5586 33.2556ZM12.5586 39.9535C12.0619 39.9535 11.5762 39.8061 11.1632 39.5302C10.7501 39.2542 10.4282 38.8619 10.2381 38.4029C10.048 37.944 9.99827 37.439 10.0951 36.9517C10.1921 36.4646 10.4313 36.017 10.7826 35.6657C11.1338 35.3144 11.5814 35.0752 12.0686 34.9783C12.5559 34.8814 13.0609 34.9312 13.5199 35.1213C13.9787 35.3113 14.3711 35.6333 14.647 36.0464C14.9231 36.4594 15.0703 36.945 15.0703 37.4418C15.0703 38.1079 14.8057 38.7468 14.3347 39.2178C13.8636 39.6888 13.2248 39.9535 12.5586 39.9535Z" fill="black"/>
<path d="M28.5798 0.00777998C28.3598 -0.0224191 28.1368 0.0360366 27.9598 0.170279C27.7829 0.304522 27.6665 0.503566 27.6363 0.723617C27.606 0.943668 27.6645 1.1667 27.7988 1.34366C27.933 1.52061 28.1321 1.63698 28.3521 1.66718C33.4017 2.37321 38.0837 4.7055 41.6891 8.31082C45.2944 11.9162 47.6267 16.5982 48.3328 21.6478C48.3602 21.8482 48.4593 22.0318 48.6117 22.1647C48.764 22.2977 48.9594 22.371 49.1616 22.3712C49.1997 22.3712 49.2377 22.3687 49.2755 22.3637C49.3844 22.3488 49.4894 22.3125 49.5843 22.257C49.6793 22.2015 49.7624 22.1278 49.8289 22.0402C49.8954 21.9526 49.9439 21.8527 49.9718 21.7463C49.9997 21.6399 50.0063 21.529 49.9913 21.4201C49.2346 16.0088 46.7353 10.9915 42.8718 7.1278C39.0083 3.26417 33.9911 0.764658 28.5798 0.00777998Z" fill="black"/>
<path d="M28.3215 6.75278C32.039 7.4111 35.4646 9.19583 38.1342 11.8654C40.8038 14.5351 42.5886 17.9606 43.2469 21.6782C43.2808 21.8723 43.3821 22.0482 43.5329 22.1751C43.6838 22.3018 43.8745 22.3714 44.0716 22.3714C44.1201 22.3713 44.1686 22.3672 44.2164 22.3589C44.4351 22.3207 44.6297 22.1971 44.7573 22.0155C44.885 21.8338 44.9353 21.6089 44.8971 21.3902C44.1796 17.3333 42.2323 13.595 39.3192 10.6818C36.4062 7.7686 32.668 5.82117 28.6112 5.10342C28.5029 5.0844 28.3919 5.08689 28.2845 5.11076C28.1772 5.13464 28.0757 5.17942 27.9856 5.24255C27.8956 5.30567 27.8189 5.38591 27.7599 5.4787C27.7008 5.57147 27.6606 5.67496 27.6416 5.78326C27.6226 5.89155 27.6251 6.00254 27.649 6.10987C27.6729 6.21721 27.7177 6.31879 27.7808 6.40882C27.8439 6.49884 27.9241 6.57553 28.0169 6.63456C28.1097 6.69359 28.2132 6.73377 28.3215 6.75278Z" fill="black"/>
<path d="M28.2703 11.8658C30.6568 12.4563 32.8369 13.6871 34.5752 15.4256C36.3136 17.1641 37.5443 19.3443 38.1346 21.7309C38.1575 21.8407 38.2023 21.9447 38.2663 22.0369C38.3302 22.129 38.412 22.2073 38.5068 22.2672C38.6016 22.3271 38.7074 22.3673 38.8181 22.3856C38.9287 22.4037 39.0419 22.3995 39.1509 22.3732C39.2599 22.3468 39.3625 22.2988 39.4526 22.2321C39.5427 22.1653 39.6184 22.0811 39.6754 21.9845C39.7323 21.8879 39.7692 21.7808 39.784 21.6697C39.7988 21.5585 39.7911 21.4455 39.7613 21.3374C39.0976 18.6519 37.713 16.1987 35.7568 14.2426C33.8008 12.2866 31.3476 10.9019 28.6621 10.2382C28.5543 10.2098 28.4419 10.2032 28.3316 10.2188C28.2212 10.2343 28.1151 10.2718 28.0194 10.329C27.9237 10.3861 27.8404 10.4618 27.7743 10.5516C27.7082 10.6414 27.6609 10.7435 27.6347 10.8518C27.6086 10.9602 27.6044 11.0727 27.6224 11.1827C27.6403 11.2927 27.6801 11.398 27.7393 11.4925C27.7985 11.5869 27.8759 11.6685 27.9671 11.7327C28.0583 11.7968 28.1613 11.842 28.2703 11.8658Z" fill="black"/>
<path d="M30.1406 23.2087C30.8029 23.2087 31.4504 23.0123 32.0012 22.6444C32.5519 22.2764 32.9811 21.7533 33.2346 21.1413C33.4881 20.5294 33.5544 19.8561 33.4251 19.2064C33.2959 18.5568 32.977 17.9601 32.5086 17.4918C32.0403 17.0234 31.4436 16.7044 30.7939 16.5752C30.1443 16.446 29.4709 16.5123 28.859 16.7658C28.2471 17.0192 27.724 17.4485 27.356 17.9992C26.988 18.5499 26.7916 19.1975 26.7916 19.8598C26.7916 20.748 27.1444 21.5998 27.7725 22.2278C28.4005 22.8559 29.2523 23.2087 30.1406 23.2087ZM30.1406 18.1853C30.4718 18.1853 30.7955 18.2835 31.0708 18.4675C31.3462 18.6515 31.5609 18.913 31.6876 19.219C31.8143 19.525 31.8474 19.8616 31.7829 20.1865C31.7183 20.5112 31.5588 20.8096 31.3246 21.0438C31.0904 21.278 30.792 21.4375 30.4673 21.5021C30.1424 21.5667 29.8058 21.5335 29.4998 21.4068C29.1938 21.2801 28.9323 21.0654 28.7483 20.79C28.5643 20.5147 28.4661 20.191 28.4661 19.8598C28.4661 19.4157 28.6425 18.9898 28.9566 18.6758C29.2706 18.3617 29.6965 18.1853 30.1406 18.1853Z" fill="black"/>
</svg>
